<svg viewBox="0 0 40 40" fill="none" xmlns="http://www.w3.org/2000/svg"><path fill-rule="evenodd" clip-rule="evenodd" d="M32.83 10.41h-.668a3.06 3.06 0 00-2.016.89c-.847-2.128-1.945-4.526-2.612-5.5-1.204-1.71-2.959-2.188-4.173-2.397a35.295 35.295 0 00-6.066-.394 35.294 35.294 0 00-6.054.387c-1.215.21-2.97.698-4.173 2.398-.678.963-1.765 3.364-2.62 5.479a3.06 3.06 0 00-2.016-.89h-.667A1.776 1.776 0 000 12.128v1.266a1.85 1.85 0 001.825 1.829h.879a13.26 13.26 0 00-.261.349 7.418 7.418 0 00-1.243 4.33v8.53c-.003.474.184.93.521 1.267.337.338.797.528 1.276.53h2.334c.996 0 1.804-.798 1.804-1.783v-1.358h16.683c1.088-3.902 4.638-6.761 8.848-6.76.247 0 .49.01.732.029v-.454a7.419 7.419 0 00-1.254-4.331 5.155 5.155 0 00-.26-.349h.878a1.85 1.85 0 001.833-1.804v-1.267a1.776 1.776 0 00-1.766-1.741zM10.523 20.808H7.22c-.78 0-1.412-.625-1.412-1.396v-.848a1.39 1.39 0 01.552-1.096 1.425 1.425 0 011.213-.244l3.304.855c.657.2 1.074.837.986 1.511a1.406 1.406 0 01-1.339 1.218zm16.837 0c.78 0 1.412-.625 1.412-1.396l.01-.848a1.39 1.39 0 00-.552-1.096 1.425 1.425 0 00-1.213-.244l-3.304.855c-.657.2-1.074.837-.986 1.511a1.406 1.406 0 001.339 1.218h3.294zM40 29.902C40 33.822 36.853 37 32.973 37c-3.88-.004-7.024-3.182-7.027-7.101.001-3.92 3.148-7.097 7.029-7.096 3.88.001 7.026 3.18 7.025 7.1zm-7.611-4.156v.534c-1.224.243-1.933 1.042-1.933 2.06 0 1.12.836 1.698 2.06 2.114.846.291 1.213.558 1.213 1.007 0 .449-.447.716-1.1.716a3.817 3.817 0 01-1.237-.214.649.649 0 00-.849.44l-.013.057a.671.671 0 00.439.801c.444.15.907.24 1.375.267v.534c0 .313.25.567.56.567.31 0 .56-.254.56-.567v-.63c1.317-.23 2.039-1.095 2.039-2.136 0-1.042-.55-1.678-1.911-2.164-.97-.368-1.373-.611-1.373-.993 0-.323.241-.646.984-.646a3.48 3.48 0 011.012.147c.06.017.121.026.183.026a.666.666 0 00.651-.584.67.67 0 00-.482-.732c-.346-.09-.7-.141-1.057-.153v-.451a.567.567 0 00-.28-.49.556.556 0 00-.561 0 .567.567 0 00-.28.49z" fill="#657786"/></svg>
