<svg viewBox="0 0 40 40" fill="none" xmlns="http://www.w3.org/2000/svg"><path fill-rule="evenodd" clip-rule="evenodd" d="M38.073 18.43a2.396 2.396 0 00-1.31.075 15.066 15.066 0 00-4.82-7.595 5.53 5.53 0 01.86-4.105 1.112 1.112 0 00-.027-1.177 1.08 1.08 0 00-1.062-.477c-2.755.36-4.335 1.654-5.22 2.836a14.611 14.611 0 00-3.172-.537.298.298 0 00-.057 0c1.947 5.451.2 11.552-4.323 15.103a13.052 13.052 0 01-15.518.471.355.355 0 00-.024.145 15.081 15.081 0 004.939 10.505c1.023.9 1.617 2.2 1.632 3.572v1.77c0 .544.435.984.972.984h5.906c.536 0 .971-.44.971-.984V37.49h4.694v1.518c0 .543.435.984.971.984h5.927c.537 0 .971-.44.971-.984V37.66a4.915 4.915 0 011.658-3.721 15.06 15.06 0 004.734-7.57 2.42 2.42 0 001.31.07A2.55 2.55 0 0040 23.917v-2.952a2.558 2.558 0 00-1.927-2.534zm-7.27.261a1.465 1.465 0 01-1.353-.916 1.498 1.498 0 01.318-1.618 1.451 1.451 0 011.596-.321c.548.23.905.77.905 1.37.002.396-.151.776-.426 1.056s-.65.438-1.04.438v-.009zM10.85 22.98c5.991 0 10.848-4.92 10.849-10.988C21.698 5.922 16.843 1 10.852 1 4.86.998.002 5.916 0 11.985c.004 6.068 4.858 10.987 10.849 10.994zM9.947 6.383v-.827c0-.313.165-.602.433-.759a.856.856 0 01.865 0 .879.879 0 01.432.76v.698a7.462 7.462 0 011.633.236c.493.137.81.62.744 1.134a1.03 1.03 0 01-1.005.904.98.98 0 01-.282-.042 5.364 5.364 0 00-1.563-.227c-1.147 0-1.518.5-1.518 1 0 .592.62.968 2.118 1.539 2.102.752 2.951 1.736 2.951 3.349 0 1.612-1.114 2.951-3.147 3.307v.976a.87.87 0 01-.865.876.871.871 0 01-.866-.876v-.827a8.07 8.07 0 01-2.122-.414 1.04 1.04 0 01-.678-1.24l.02-.087c.123-.44.52-.744.972-.74.116 0 .23.02.34.058.614.215 1.259.327 1.91.33 1.007 0 1.697-.413 1.697-1.107 0-.695-.567-1.108-1.873-1.559-1.89-.645-3.18-1.538-3.18-3.274 0-1.576 1.094-2.812 2.984-3.188z" fill="#657786"/></svg>
