<svg viewBox="0 0 40 40" fill="none" xmlns="http://www.w3.org/2000/svg"><path fill-rule="evenodd" clip-rule="evenodd" d="M39.737 37.403l-1.804-1.857a3.756 3.756 0 00-2.716-1.148 3.756 3.756 0 00-2.716 1.148l-.981 1.01a1.91 1.91 0 01-1.381.584 1.91 1.91 0 01-1.381-.584l-.982-1.01a3.756 3.756 0 00-2.716-1.148 3.756 3.756 0 00-2.716 1.148l-.98 1.01a1.91 1.91 0 01-1.382.584 1.91 1.91 0 01-1.381-.584l-.982-1.01a3.756 3.756 0 00-2.715-1.148 3.756 3.756 0 00-2.716 1.148l-.982 1.01a1.91 1.91 0 01-1.38.584 1.91 1.91 0 01-1.382-.584l-.981-1.01a3.757 3.757 0 00-2.716-1.148 3.76 3.76 0 00-2.723 1.155L.256 37.411a.93.93 0 101.348 1.281l1.761-1.85a1.91 1.91 0 011.381-.584 1.91 1.91 0 011.382.584l.98 1.01A3.756 3.756 0 009.826 39a3.755 3.755 0 002.716-1.148l.98-1.01a1.91 1.91 0 011.382-.584 1.91 1.91 0 011.381.584l.982 1.01A3.755 3.755 0 0019.982 39a3.755 3.755 0 002.715-1.148l.982-1.01a1.91 1.91 0 011.38-.584 1.91 1.91 0 011.382.584l.981 1.01A3.756 3.756 0 0030.138 39a3.756 3.756 0 002.716-1.148l.982-1.01a1.91 1.91 0 011.38-.584 1.91 1.91 0 011.382.584l1.804 1.857a.93.93 0 001.335-1.296zM4.173 18.933a.953.953 0 01-.079-.157 12.297 12.297 0 01.286-9.47 12.3 12.3 0 016.9-6.495 12.307 12.307 0 019.473.286 12.3 12.3 0 016.497 6.898.924.924 0 01.058.336V10.372a.932.932 0 01-.071.31l-.019.044a.915.915 0 01-.176.253l-.008.007-.025.023-.012.01a.949.949 0 01-.094.073l-.012.009a.939.939 0 01-.175.092h-.003l-.003.002c-.003.002-.007.002-.01.003-.004 0-.007.002-.01.003a.954.954 0 01-.337.053h-.011a.919.919 0 01-.193-.03l-.01-.003-.022-.006a.398.398 0 01-.036-.01c-3.35-1.137-3.926.408-4.346 1.537a.93.93 0 01-1.103.576c-1.998-.51-3.42-.402-4.43-.155l4.276 11.267h.18a17.72 17.72 0 0114.663 7.7h-.104c-1.377 0-2.67.546-3.627 1.531l-.981 1.01a.64.64 0 01-.47.2.64.64 0 01-.47-.2l-.982-1.01a5.026 5.026 0 00-3.627-1.532c-1.377 0-2.67.547-3.627 1.532l-.981 1.01a.64.64 0 01-.47.2.64.64 0 01-.47-.2l-.981-1.01a5.026 5.026 0 00-3.627-1.532c-1.377 0-2.67.547-3.627 1.532l-.982 1.01a.64.64 0 01-.47.2.64.64 0 01-.47-.2l-.981-1.01a5.023 5.023 0 00-2.468-1.399 17.702 17.702 0 0112.63-7.708l-4.073-10.731c-.919.484-2.056 1.346-3.212 3.053a.93.93 0 01-1.207.3c-1.065-.567-2.52-1.342-4.272 1.731a.51.51 0 01-.024.035l-.011.017-.009.014-.014.021a.95.95 0 01-.101.117l-.017.015-.01.01a.947.947 0 01-.103.08l-.008.005-.027.018a.93.93 0 01-.144.072h-.002l-.003.003a.11.11 0 01-.02.007.904.904 0 01-.124.035l-.011.001a.916.916 0 01-.18.02.92.92 0 01-.073-.003l-.019-.003a.82.82 0 01-.151-.029l-.056-.016a.882.882 0 01-.072-.029.95.95 0 01-.226-.14l-.008-.007a.66.66 0 01-.039-.033l-.04-.043-.01-.01-.01-.012c-.01-.012-.021-.023-.03-.036a.79.79 0 01-.042-.06l-.005-.008-.01-.015zM20.64 5.115a10.454 10.454 0 00-6.275-1.17c2.056.996 4.595 2.917 6.41 6.608.67-.916 1.834-1.78 3.929-1.563l-.02-.032-.019-.033c-.121-.2-.247-.397-.38-.588l-.03-.04-.023-.032c-.123-.173-.252-.341-.385-.505l-.022-.027a10.47 10.47 0 00-.537-.611l-.052-.053a10.338 10.338 0 00-.521-.502c-.02-.02-.041-.038-.062-.057a10.54 10.54 0 00-.615-.501l-.045-.033c-.17-.128-.345-.251-.523-.369-.012-.007-.024-.015-.035-.024l-.04-.026a10.67 10.67 0 00-.608-.362l-.132-.071-.015-.009zm-8.862-.499l.068-.027c.031-.014.062-.027.094-.039l.1-.035.065-.023c1.911.556 5.3 2.161 7.517 6.727-1.803-.266-3.41-.107-4.968.483-1.558.591-2.866 1.539-4.04 2.933-1.369-4.888.102-8.336 1.164-10.019zm-6.601 8.942a10.388 10.388 0 00-.03.938v.038a9.538 9.538 0 00.024.583c.01.154.025.308.043.462l.008.062.006.045a10.288 10.288 0 00.076.503l.001.008a3.637 3.637 0 00.028.14c1.424-1.552 2.869-1.677 3.976-1.436-1.09-3.966-.464-7.088.415-9.195a10.45 10.45 0 00-3.87 4.902l-.014.037c-.04.105-.08.21-.116.317l-.006.016-.044.132c-.038.115-.074.23-.108.345l-.012.04-.02.068c-.042.15-.08.3-.116.452l-.013.061a10.007 10.007 0 00-.16.88l-.004.027-.016.113c-.019.153-.036.307-.048.462z" fill="#657786"/></svg>
